PathFileType	4	(X/Y/Z)	Run_500 01
DataRate	CameraRate	NumFrames	NumMarkers	Units	OrigDataRate	OrigDataStartFrame	OrigNumFrames
120	120	7	42	mm	120	213	128
Frame#	Time	RASI			LPSI			RPSI			RTH3			LTH1			LTH2			LTH3			RTB1			RTB2			RTB3			LTB1			LTB2			LTB3			RCAL			RTOE			RMT5			LCAL			LTOE			LMT5			LACR			RACR			CLAV			C7			RUA1			RUA2			RUA3			RLEL			LUA1			LUA2			LUA3			LLEL			LMEL			RFAsuperior			RFAradius			RFAulna			LFAsuperior			LFAradius			LFAulna			LASI			RTH1			RMEL			RTH2		
		X1	Y1	Z1	X2	Y2	Z2	X3	Y3	Z3	X4	Y4	Z4	X5	Y5	Z5	X6	Y6	Z6	X7	Y7	Z7	X8	Y8	Z8	X9	Y9	Z9	X10	Y10	Z10	X11	Y11	Z11	X12	Y12	Z12	X13	Y13	Z13	X14	Y14	Z14	X15	Y15	Z15	X16	Y16	Z16	X17	Y17	Z17	X18	Y18	Z18	X19	Y19	Z19	X20	Y20	Z20	X21	Y21	Z21	X22	Y22	Z22	X23	Y23	Z23	X24	Y24	Z24	X25	Y25	Z25	X26	Y26	Z26	X27	Y27	Z27	X28	Y28	Z28	X29	Y29	Z29	X30	Y30	Z30	X31	Y31	Z31	X32	Y32	Z32	X33	Y33	Z33	X34	Y34	Z34	X35	Y35	Z35	X36	Y36	Z36	X37	Y37	Z37	X38	Y38	Z38	X39	Y39	Z39	X40	Y40	Z40	X41	Y41	Z41	X42	Y42	Z42	

213	  1.775000	998.761312	974.460797	-200.456255	833.508191	1036.619720	-356.273414	836.273465	1031.711883	-258.754595	773.721502	587.438456	-200.203545	1005.796687	847.334491	-482.053267	1123.216739	810.421598	-460.894213	1141.406749	684.324513	-440.912255	689.826209	367.494227	-275.611945	622.646716	339.935835	-214.530367	600.230312	279.579121	-280.712216	1176.291615	495.732309	-361.988692	1097.655106	467.073302	-437.497047	1051.796166	376.493921	-372.149489	412.283330	216.825214	-286.234016	557.259370	 72.386866	-336.904669	535.329344	 64.300557	-243.139758	879.376672	327.365316	-382.458910	1047.969668	209.198954	-347.554834	1033.127666	201.246632	-438.196422	942.741200	1465.613793	-504.788669	991.274690	1460.211205	-118.902106	1025.885513	1448.727899	-300.731777	898.491908	1506.887708	-317.852164	947.618815	1331.411785	-52.824058	871.605921	1326.262950	-53.930884	915.985117	1259.169657	-14.100615	890.258218	1195.444815	 13.532405	843.055454	1382.966602	-564.697455	766.640994	1372.936092	-548.156550	800.113230	1305.419905	-582.516171	722.157220	1265.127972	-603.668852	689.614772	1278.609708	-524.457414	997.781544	1162.469259	-46.399788	1066.449085	1132.667474	-140.114107	1076.800207	1080.929663	-93.847001	799.225648	1163.921003	-577.200845	874.925961	1108.763453	-486.421207	852.123056	1070.327483	-539.297547	993.088181	1002.483582	-429.862793	887.873868	819.250082	-144.661177	845.485523	1170.177259	-52.012060	  0.000002	  0.000002	 -0.000000	
214	  1.783333	1003.929249	977.981482	-202.944450	836.688964	1041.909874	-354.996897	840.402002	1036.242513	-257.882889	758.847167	601.439684	-198.375744	1008.856682	855.848513	-479.275701	1126.580729	818.766188	-460.293993	1142.394329	690.468766	-436.136476	668.223800	382.408213	-270.714156	599.726608	357.003046	-209.734418	579.807148	292.934158	-274.951406	1190.922618	499.213632	-358.595879	1117.066072	460.918904	-434.882677	1080.780893	366.613616	-368.652522	396.596526	236.686224	-281.666255	524.493010	 77.226853	-333.953625	499.715975	 68.902525	-241.295813	914.979174	297.747125	-380.259418	1096.227547	201.409469	-342.168858	1083.694661	191.282447	-433.158775	938.232627	1471.078061	-504.141111	994.359235	1466.430955	-121.187761	1025.185692	1453.590853	-302.575736	897.447340	1510.755153	-317.444599	953.084146	1337.948684	-53.462849	877.129281	1332.459205	-53.023953	922.894608	1265.972208	-13.553169	897.751198	1201.648888	 14.059549	837.184616	1391.605296	-563.333268	761.340563	1382.844990	-544.594492	792.901706	1315.951918	-581.789563	714.204462	1276.086257	-601.818503	683.465000	1289.133769	-521.715664	1004.075208	1172.423558	-49.295305	1070.882204	1145.081625	-145.666962	1083.951259	1093.592208	-99.656415	791.714401	1174.860600	-576.513486	869.054243	1119.716207	-486.812380	845.561681	1081.068245	-539.032216	995.931790	1010.506881	-431.268446	888.548977	824.345803	-144.414314	851.723522	1176.085605	-50.695515	  0.000006	  0.000004	 -0.000001	
215	  1.791667	1008.653112	980.834681	-205.071562	839.788373	1046.643196	-354.066702	844.506428	1040.528726	-257.357840	745.565102	615.830877	-197.634678	1010.617144	862.479921	-476.045032	1128.460458	824.055099	-460.275370	1142.092171	694.612954	-431.365620	649.454942	397.946119	-266.738402	579.809660	374.787356	-205.468506	561.583371	307.125087	-269.734336	1204.365169	501.820494	-354.960046	1136.739441	454.581283	-432.186658	1109.848825	357.584123	-365.111318	383.919732	257.774686	-275.733896	494.104805	 85.652264	-330.184905	465.748938	 77.073611	-238.851749	952.986668	269.903594	-378.178811	1143.920676	196.624313	-336.112329	1134.137700	184.057429	-427.207808	933.960066	1475.606690	-503.222449	997.272183	1471.928540	-123.410075	1024.689775	1457.601748	-304.061769	896.564357	1513.780317	-316.949091	958.559613	1343.946007	-54.135326	882.697076	1338.447886	-52.336206	929.455129	1272.432606	-12.925062	904.703788	1207.484280	 14.652394	831.789826	1399.161303	-561.994511	756.428284	1391.396011	-541.514693	786.042747	1325.259554	-581.196127	706.862942	1285.888233	-600.187124	677.669075	1298.215120	-519.246448	1009.541480	1181.434257	-52.050897	1074.418478	1156.107279	-151.033680	1089.818352	1104.843454	-105.199495	785.028790	1184.896975	-576.051192	863.869718	1129.649599	-487.342210	839.980722	1090.853065	-539.153047	998.599517	1017.728131	-432.903173	888.937507	828.856767	-143.445882	857.467174	1181.673002	-49.304439	  0.000004	  0.000003	 -0.000001	
216	  1.800000	1012.789315	982.830482	-206.803213	842.685881	1050.949040	-353.370550	848.631272	1044.653533	-256.933488	734.463064	629.524834	-197.983000	1011.712252	866.966897	-473.742058	1128.833829	826.098849	-460.552838	1141.156626	696.757805	-427.653859	633.217694	413.412170	-264.667847	563.570759	392.005395	-202.297983	544.734826	322.153990	-265.876174	1216.489358	503.498020	-351.486369	1156.367830	448.282685	-429.579763	1138.667243	349.541361	-361.701944	372.065981	279.842378	-268.715928	465.424687	 98.040371	-326.282185	434.140238	 89.441286	-236.112770	992.810699	244.352959	-375.991000	1190.408450	194.574937	-329.694524	1183.663993	179.391026	-420.537290	929.970735	1479.085750	-502.153456	1000.048608	1476.527245	-125.471490	1024.394585	1460.763699	-305.292829	895.818394	1516.041317	-316.323477	963.909348	1349.230162	-54.843616	888.096015	1343.997194	-51.848636	935.601331	1278.359001	-12.234699	911.049056	1212.739522	 15.295462	826.860689	1405.477507	-560.613291	751.836212	1398.389843	-538.959517	779.647499	1333.110032	-580.785035	700.129640	1294.299637	-598.706858	672.216211	1305.722364	-517.064812	1014.178646	1189.223024	-54.609725	1077.150656	1165.622007	-155.862837	1094.416664	1114.044641	-110.819684	779.156063	1193.828897	-575.859087	859.321964	1138.309533	-488.060423	835.389018	1099.512480	-539.857736	1001.067922	1023.677372	-434.756519	888.973368	833.425213	-141.656190	862.561312	1186.855238	-47.851712	 -0.000005	 -0.000004	  0.000001	
217	  1.808333	1016.007728	984.093248	-208.345893	845.227348	1054.932020	-352.814482	852.460754	1048.743208	-256.391786	726.157565	641.321111	-198.898176	1012.838305	869.272383	-473.444789	1128.150709	825.355683	-460.540079	1140.298618	696.888487	-425.893726	618.934057	427.923223	-264.831760	551.128237	407.273046	-200.450459	528.369256	337.898511	-263.821553	1227.108643	504.160600	-348.638393	1175.298167	442.029590	-427.334230	1166.743023	342.546863	-358.522836	358.737294	302.536673	-261.254381	437.445661	114.384471	-323.134533	405.493795	105.935808	-233.491841	1033.603631	221.420845	-373.309393	1234.943736	194.992093	-323.186146	1231.384250	177.212629	-413.500650	926.341473	1481.500906	-501.136309	1002.718569	1480.108564	-127.257667	1024.241431	1463.184892	-306.367691	895.175689	1517.700754	-315.525857	968.911886	1353.641434	-55.558941	893.082932	1348.854117	-51.449716	941.221145	1283.536630	-11.489860	916.743413	1217.197373	 15.975609	822.402222	1410.410341	-559.110946	747.558071	1403.737900	-536.810029	773.841082	1339.392152	-580.546215	694.025183	1301.121477	-597.238110	667.193610	1311.601924	-515.064578	1018.014444	1195.481731	-56.895535	1079.061136	1173.371074	-159.964226	1097.782019	1120.746837	-116.493697	774.076692	1201.446482	-575.916705	855.418453	1145.502185	-489.000103	831.765803	1106.882620	-541.142902	1003.289043	1027.915823	-436.774362	888.563396	838.450951	-139.484285	866.975881	1191.468136	-46.390639	 -0.000017	 -0.000012	  0.000004	
218	  1.816667	1018.158009	985.025822	-209.702717	847.256983	1058.528087	-352.410741	855.626412	1052.771569	-255.722316	721.108086	650.170852	-199.680225	1014.279810	869.563141	-475.321092	1127.133884	822.741056	-459.734420	1139.918523	695.129213	-426.256004	606.109604	440.652560	-266.591427	541.635728	419.902715	-199.707337	511.992394	354.072105	-263.313909	1235.966986	503.697359	-346.740426	1192.643313	435.636093	-425.620492	1193.321663	336.533008	-355.587998	342.759546	325.774587	-254.032194	409.388663	134.386465	-321.373518	379.815076	125.920565	-231.315110	1074.229991	201.200026	-369.775451	1276.570732	197.799618	-316.846345	1276.254090	177.569143	-406.465097	923.162288	1482.948997	-500.369499	1005.246794	1482.636514	-128.677773	1024.161524	1465.019306	-307.358291	894.641302	1518.915314	-314.600085	973.334245	1357.030813	-56.240457	897.469085	1352.754981	-50.993484	946.164993	1287.731842	-10.722963	921.744306	1220.665611	 16.656143	818.465157	1413.874377	-557.528966	743.685650	1407.434004	-534.880309	768.736131	1344.104632	-580.396120	688.640509	1306.259048	-595.698278	662.779393	1315.830567	-513.097948	1021.111155	1199.923262	-58.851129	1080.113672	1178.979573	-163.370050	1099.986046	1125.068060	-121.529048	769.803588	1207.552946	-576.162958	852.239184	1151.075076	-490.170435	829.086977	1112.801875	-542.837090	1005.144466	1030.165164	-438.692919	887.659505	843.965205	-137.657569	870.739649	1195.267629	-44.995290	 -0.000015	 -0.000011	  0.000003	
219	  1.825000	1019.401998	986.076869	-210.602441	848.681666	1061.472631	-352.287696	857.895309	1056.524182	-255.154121	719.460609	655.404877	-199.865665	1015.705406	868.160387	-478.621957	1126.354217	819.136151	-458.188777	1139.756365	691.755231	-428.035017	594.767119	451.050032	-268.605800	533.662576	430.330795	-199.474032	495.920481	370.252225	-263.457211	1242.780829	502.021240	-345.769622	1207.597351	428.918197	-424.344382	1217.456527	331.333958	-352.813836	324.910995	349.889791	-247.540709	381.233233	157.487483	-320.923019	356.286962	148.576494	-229.608944	1113.292951	183.672352	-365.331215	1314.084979	203.018490	-310.914756	1317.064434	180.471338	-399.687610	920.532076	1483.612338	-499.971240	1007.498012	1484.174000	-129.700685	1024.114415	1466.395440	-308.309080	894.268499	1519.789146	-313.721271	976.988011	1359.277413	-56.861508	901.119788	1355.467046	-50.387258	950.269179	1290.732160	-10.004832	925.970576	1223.027289	 17.255485	815.160144	1415.886494	-556.096056	740.392553	1409.528540	-533.007625	764.443028	1347.323298	-580.205797	684.147238	1309.725084	-594.123773	659.215521	1318.379607	-511.099269	1023.533836	1202.351414	-60.461536	1080.322625	1182.081477	-166.212434	1101.105794	1127.675190	-124.839430	766.408157	1211.983417	-576.518080	849.922985	1154.918139	-491.537181	827.344460	1117.127416	-544.713303	1006.482779	1030.436148	-440.045870	886.456773	849.589452	-136.746684	873.796032	1198.020462	-43.733441	  0.000012	  0.000009	 -0.000003	
